<?xml version="1.0" standalone="no"?>
<!DOCTYPE svg PUBLIC "-//W3C//DTD SVG 20010904//EN"
 "http://www.w3.org/TR/2001/REC-SVG-20010904/DTD/svg10.dtd">
<svg version="1.0" xmlns="http://www.w3.org/2000/svg"
 width="754.000000pt" height="754.000000pt" viewBox="0 0 754.000000 754.000000"
 preserveAspectRatio="xMidYMid meet">
<metadata>
Created by potrace 1.14, written by Peter Selinger 2001-2017
</metadata>
<g transform="translate(0.000000,754.000000) scale(0.100000,-0.100000)"
fill="#000000" stroke="none">
<path d="M3495 7534 c-551 -53 -956 -166 -1405 -390 -511 -256 -945 -610
-1294 -1058 -402 -515 -661 -1123 -756 -1769 -16 -113 -40 -387 -40 -463 l0
-24 629 0 629 0 7 88 c47 643 297 1197 734 1632 767 762 1927 949 2887 465
229 -115 426 -256 624 -443 l95 -91 -305 -305 -305 -306 1003 0 1002 0 0 995
c0 547 -3 995 -8 995 -4 0 -117 -110 -251 -244 l-244 -244 -126 118 c-307 289
-573 476 -921 651 -399 199 -771 313 -1235 375 -104 15 -624 27 -720 18z"/>
<path d="M3201 4744 c-17 -14 -35 -42 -41 -62 -6 -24 -10 -352 -10 -930 0
-948 0 -938 45 -956 31 -11 84 -6 134 14 92 36 1635 900 1664 932 31 33 31 68
-1 99 -23 23 -1598 898 -1646 915 -61 22 -110 18 -145 -12z"/>
<path d="M6270 3708 c0 -59 -23 -264 -40 -363 -169 -962 -901 -1749 -1850
-1990 -223 -57 -335 -69 -615 -69 -224 0 -278 3 -390 22 -530 91 -988 323
-1359 687 l-89 87 304 304 304 304 -1003 0 -1002 0 0 -1002 0 -1003 252 252
253 252 105 -101 c610 -585 1333 -933 2170 -1045 193 -26 717 -26 910 0 791
107 1463 414 2056 938 604 535 1033 1290 1188 2094 33 172 66 475 66 606 l0
49 -630 0 -630 0 0 -22z"/>
</g>
</svg>
